HIERARCHY
ROOT Model_Hips
{
	OFFSET 0.000000 96.915077 0.000000
	CHANNELS 6 Xposition Yposition Zposition Xrotation Yrotation Zrotation
	JOINT Model_Spine
	{
		OFFSET 0.000000 11.137703 -1.289900
		CHANNELS 3 Xrotation Yrotation Zrotation
		JOINT Model_Spine1
		{
			OFFSET 0.000000 12.993942 -1.504922
			CHANNELS 3 Xrotation Yrotation Zrotation
			JOINT Model_Spine2
			{
				OFFSET 0.000000 14.850220 -1.719911
				CHANNELS 3 Xrotation Yrotation Zrotation
				JOINT Model_Neck
				{
					OFFSET 0.000000 16.706543 -1.934903
					CHANNELS 3 Xrotation Yrotation Zrotation
					JOINT Model_Head
					{
						OFFSET 0.000000 10.471298 2.002100
						CHANNELS 3 Xrotation Yrotation Zrotation
						JOINT Model_HeadTop_End
						{
							OFFSET 0.000000 20.842606 3.985100
							CHANNELS 3 Xrotation Yrotation Zrotation
							End Site
							{
								OFFSET 0.000000 21.220154 0.000000
							}
						}
					}
				}
				JOINT Model_LeftShoulder
				{
					OFFSET 7.008500 14.768600 -1.919946
					CHANNELS 3 Xrotation Yrotation Zrotation
					JOINT Model_LeftArm
					{
						OFFSET 14.126271 -3.718048 0.029937
						CHANNELS 3 Xrotation Yrotation Zrotation
						JOINT Model_LeftForeArm
						{
							OFFSET 28.282801 0.000000 0.000000
							CHANNELS 3 Xrotation Yrotation Zrotation
							JOINT Model_LeftHand
							{
								OFFSET 26.204689 0.000000 0.000000
								CHANNELS 3 Xrotation Yrotation Zrotation
								End Site
								{
									OFFSET 26.204704 0.000000 0.000000
								}
							}
						}
					}
				}
				JOINT Model_RightShoulder
				{
					OFFSET -7.008500 14.768555 -1.949840
					CHANNELS 3 Xrotation Yrotation Zrotation
					JOINT Model_RightArm
					{
						OFFSET -14.126281 -3.718018 -0.029932
						CHANNELS 3 Xrotation Yrotation Zrotation
						JOINT Model_RightForeArm
						{
							OFFSET -28.283798 0.000000 -0.000001
							CHANNELS 3 Xrotation Yrotation Zrotation
							JOINT Model_RightHand
							{
								OFFSET -26.204193 0.000000 -0.000001
								CHANNELS 3 Xrotation Yrotation Zrotation
								End Site
								{
									OFFSET -26.204208 0.000000 -0.000001
								}
							}
						}
					}
				}
			}
		}
	}
	JOINT Model_LeftUpLeg
	{
		OFFSET 8.327700 -6.193199 -0.402800
		CHANNELS 3 Xrotation Yrotation Zrotation
		JOINT Model_LeftLeg
		{
			OFFSET 0.735802 -42.108742 -0.610721
			CHANNELS 3 Xrotation Yrotation Zrotation
			JOINT Model_LeftFoot
			{
				OFFSET -0.735806 -36.833748 -0.172876
				CHANNELS 3 Xrotation Yrotation Zrotation
				JOINT Model_LeftToeBase
				{
					OFFSET -0.565857 -11.977769 16.297714
					CHANNELS 3 Xrotation Yrotation Zrotation
					JOINT Model_LeftToe_End
					{
						OFFSET -0.111712 -0.312793 7.857784
						CHANNELS 3 Xrotation Yrotation Zrotation
						End Site
						{
							OFFSET -0.111712 -0.312793 7.857784
						}
					}
				}
			}
		}
	}
	JOINT Model_RightUpLeg
	{
		OFFSET -8.327700 -6.193199 -0.516500
		CHANNELS 3 Xrotation Yrotation Zrotation
		JOINT Model_RightLeg
		{
			OFFSET -0.735785 -42.108738 -0.434061
			CHANNELS 3 Xrotation Yrotation Zrotation
			JOINT Model_RightFoot
			{
				OFFSET 0.735776 -36.833748 -0.021630
				CHANNELS 3 Xrotation Yrotation Zrotation
				JOINT Model_RightToeBase
				{
					OFFSET 0.565817 -11.977745 15.903093
					CHANNELS 3 Xrotation Yrotation Zrotation
					JOINT Model_RightToe_End
					{
						OFFSET 0.111702 -0.312791 7.811342
						CHANNELS 3 Xrotation Yrotation Zrotation
						End Site
						{
							OFFSET 0.111702 -0.312791 7.811342
						}
					}
				}
			}
		}
	}
}
MOTION
Frames: 15
Frame Time: 0.033333
0.244185 96.494110 0.265634 -4.310862 2.834631 -1.242829 6.327383 2.214858 -0.061139 0.584418 0.628572 0.173313 0.586623 0.622349 0.171086 -1.352828 0.196531 0.604556 -1.354429 0.199170 0.604061 0.000000 -0.000000 0.000000 0.615813 -3.124616 -19.144406 0.537379 -8.872077 -61.175532 -0.000005 -6.440771 0.000002 0.000002 -0.000000 0.000000 0.755450 0.949797 17.299875 -0.734535 9.495166 56.496535 0.000032 13.104460 0.000014 -0.000000 -0.000001 -0.000000 -25.108172 5.582687 0.809243 61.821026 -0.190548 -1.195645 1.131489 0.004166 0.893884 -10.767127 -0.663084 4.445000 -0.000001 -0.000000 -0.000000 -1.562193 -11.173452 -4.477232 14.631076 4.178206 1.525851 -8.864129 -0.296290 1.875744 -0.363920 -0.000000 0.000001 0.000000 -0.000000 0.000000 
0.054842 96.586456 4.022815 -3.711370 2.965485 -0.723916 6.193170 3.631036 -0.927596 0.595157 1.040582 0.010146 0.597858 1.035344 0.005283 -1.382562 0.094610 0.604555 -1.384944 0.096374 0.594417 0.000000 0.000000 0.000000 0.681516 -2.291690 -18.816107 3.447608 -7.779943 -62.088721 -0.000003 -7.079239 0.000008 -0.000000 -0.000000 -0.000000 0.705145 1.676670 17.179292 -2.150540 12.063402 55.250408 -0.000004 15.458366 0.000011 0.000002 -0.000001 0.000000 -28.182800 5.482907 0.092518 53.376596 1.813095 -1.550986 -0.446571 -0.020749 0.964059 -2.874115 -0.029581 1.322156 -0.000001 -0.000001 0.000000 0.469710 -11.528158 -4.536624 14.656387 4.139749 1.327974 -11.396632 -0.189230 0.954794 -0.550279 -0.000001 -0.000000 0.000000 0.000000 0.000000 
-0.037841 96.337303 7.759970 -2.976151 3.519904 -0.165822 6.004620 4.628035 -1.822991 0.581546 1.340860 -0.162110 0.583221 1.337016 -0.168762 -1.415944 0.000632 0.598242 -1.418774 0.001589 0.591478 0.000000 -0.000001 -0.000000 0.727899 -1.689724 -18.702491 6.560229 -6.241630 -62.596150 0.000005 -7.809504 0.000007 0.000000 0.000000 -0.000000 0.675363 2.152648 17.307312 -3.119630 14.612041 53.393095 0.000001 18.274521 0.000005 0.000003 -0.000001 0.000000 -29.656029 4.816249 -0.905595 41.667047 5.229960 -1.352931 -0.397163 -0.040684 1.094523 -0.627192 0.000011 -0.000004 -0.000001 -0.000000 0.000000 2.333524 -11.967081 -4.672280 14.947215 3.652045 1.085824 -14.502133 -0.086476 0.413014 -0.520472 -0.000001 0.000000 0.000000 0.000000 0.000000 
-0.013816 95.773636 11.593504 -2.478743 4.400621 0.207531 5.944808 5.380130 -2.538604 0.634167 1.571390 -0.278150 0.634946 1.567535 -0.287200 -1.452545 -0.104572 0.566850 -1.455371 -0.105089 0.559457 -0.000000 0.000000 -0.000000 0.764427 -1.264101 -18.852932 9.228950 -4.468569 -62.955165 0.000010 -8.164974 -0.000004 0.000000 -0.000000 -0.000001 0.674681 2.194400 17.499993 -4.634156 16.820203 51.394950 0.000013 20.533157 0.000003 0.000003 -0.000001 0.000000 -28.529879 4.050997 -1.796289 25.584652 8.445852 -0.767383 2.130896 -0.034652 1.166454 -0.412927 0.000012 -0.000004 -0.000000 -0.000002 -0.000000 4.383823 -12.797384 -4.917054 15.626288 3.208071 1.221102 -17.733983 -0.049270 0.371495 -0.792240 -0.000000 0.000000 0.000000 0.000001 0.000000 
0.123580 93.888878 16.120344 -2.114626 5.415931 -0.076111 4.889014 5.950214 -2.641713 1.101927 1.733498 -0.216019 1.101295 1.731705 -0.214362 -1.508518 -0.189459 0.535994 -1.511103 -0.191275 0.527961 0.000000 0.000001 0.000000 0.803962 -0.794578 -18.929938 11.073717 -1.958692 -63.520220 -0.000009 -7.751005 0.000001 -0.000001 -0.000000 0.000000 0.688955 2.011773 17.637362 -6.589593 18.400287 49.737861 0.000025 21.872072 -0.000017 0.000001 0.000001 0.000001 -30.033482 3.943185 -1.705815 16.694842 8.631524 -0.227582 0.175504 0.947348 -0.115952 0.914464 0.000002 0.000001 0.000000 -0.000001 0.000000 4.157592 -13.293320 -5.268656 23.296117 2.858073 1.549115 -25.431303 -0.089998 0.232580 -1.704089 -0.000001 -0.000001 0.000000 0.000001 0.000000 
0.472932 92.241379 20.865530 -1.779389 6.297872 -0.779404 3.735820 6.408897 -2.289440 1.450403 1.856337 -0.121532 1.449661 1.855861 -0.107459 -1.573258 -0.255389 0.559959 -1.575992 -0.257444 0.551175 0.000000 0.000000 0.000000 0.842138 -0.202567 -18.584137 12.040144 1.486560 -64.417133 0.000012 -6.276962 -0.000005 0.000001 0.000000 0.000000 0.697697 1.920261 17.805084 -8.489012 19.017431 48.594457 0.000010 22.504107 -0.000021 0.000003 0.000003 -0.000000 -34.639895 4.025874 -0.994889 16.898149 7.669978 0.353490 -6.639654 2.363939 -5.003718 1.307249 0.000004 -0.000004 0.000002 -0.000002 -0.000001 6.224503 -13.558029 -4.982796 26.345633 3.048275 1.693069 -29.088116 -0.786933 2.219835 -3.699133 0.000005 0.000002 0.000000 0.000001 0.000000 
1.086443 91.405914 25.338333 -1.564323 6.808824 -1.207830 3.590334 6.977393 -2.114312 1.305914 2.015512 -0.123859 1.305756 2.014861 -0.111047 -1.615808 -0.324599 0.617114 -1.619186 -0.325838 0.607533 0.000000 -0.000001 0.000000 0.867867 0.309335 -18.150430 12.835644 4.782815 -65.192462 0.000009 -4.573991 0.000008 -0.000002 0.000001 0.000001 0.700994 1.934189 18.111324 -10.153049 18.661617 47.951695 0.000014 22.599981 -0.000010 0.000003 -0.000001 -0.000002 -37.073492 3.096599 -1.526716 17.269396 6.869265 1.963218 -11.484559 4.920120 -9.428729 1.001366 -0.000001 0.000002 0.000001 0.000001 -0.000003 9.654274 -14.230452 -5.119216 25.318150 4.390288 2.014343 -28.713214 -1.545858 4.361711 -8.610697 0.000004 0.000001 -0.000000 0.000000 0.000000 
1.939992 90.809189 29.895256 -1.440889 6.977615 -1.234170 3.754356 7.561408 -2.279845 1.152022 2.186072 -0.144043 1.150888 2.186315 -0.128999 -1.717189 -0.358308 0.661345 -1.721204 -0.359002 0.650457 -0.000000 0.000001 -0.000000 0.903516 0.833985 -18.058544 13.502981 7.301528 -65.590751 -0.000015 -3.447944 -0.000012 0.000000 0.000001 0.000000 0.696577 2.027410 18.291679 -11.354176 17.690817 47.860071 0.000000 22.543768 0.000006 -0.000004 0.000004 -0.000004 -36.777362 3.174446 -2.183263 18.401660 6.241891 1.684546 -11.599689 6.304429 -7.924448 0.116343 0.000002 -0.000003 -0.000001 -0.000001 -0.000001 12.830590 -15.169102 -5.748757 24.460106 6.256042 2.209380 -27.544558 -1.830136 4.850602 -14.923125 0.000001 0.000001 0.000001 0.000001 0.000000 
2.981153 90.468163 34.778118 -1.710876 7.003134 -0.804246 4.239943 8.137200 -2.944416 1.006832 2.367523 -0.201412 1.005331 2.367143 -0.191290 -1.857033 -0.366806 0.713697 -1.861454 -0.368911 0.700856 -0.000000 0.000001 -0.000000 0.934251 1.222369 -18.108110 14.315393 8.203933 -65.946856 -0.000011 -3.377663 0.000007 -0.000002 0.000001 -0.000001 0.703665 1.937584 18.302079 -11.609482 16.547648 48.074256 -0.000000 22.615134 -0.000001 0.000002 -0.000001 0.000000 -36.044298 4.818910 -2.855737 22.222386 5.096170 -0.830029 -7.636866 2.946070 1.896962 -2.508978 0.000010 -0.000004 -0.000001 -0.000002 -0.000001 16.488746 -15.807875 -6.269591 23.240996 7.030054 1.272755 -24.481592 -2.325175 6.451327 -21.983374 -0.000002 0.000001 0.000001 -0.000000 0.000000 
4.196453 90.491844 39.845844 -2.376607 6.792776 -0.079221 5.031890 8.912491 -3.840064 0.737078 2.614371 -0.318478 0.736517 2.612604 -0.316658 -1.935939 -0.383292 0.696720 -1.940185 -0.387328 0.682197 -0.000000 0.000001 0.000000 0.928961 1.072412 -18.248592 15.742003 7.903248 -66.121354 -0.000011 -4.086234 0.000002 0.000001 0.000000 -0.000000 0.743902 1.416049 18.318236 -10.572719 15.414593 48.546901 0.000019 22.387588 -0.000003 -0.000002 0.000001 0.000001 -32.405570 5.010711 -4.381027 20.979821 5.505228 -1.354115 0.212556 0.626168 6.680514 -4.409301 0.000009 0.000000 0.000000 -0.000000 -0.000000 18.633427 -16.074206 -7.487826 24.605622 6.247874 -0.345436 -18.568020 -2.824431 10.070421 -31.175637 0.000001 -0.000002 0.000001 0.000000 0.000000 
5.534870 90.852989 44.742058 -2.628491 6.726677 0.427184 5.559871 9.233416 -4.264520 0.320279 2.720989 -0.432088 0.320848 2.720249 -0.434160 -2.031091 -0.347273 0.631845 -2.035093 -0.351410 0.616096 -0.000000 -0.000000 -0.000000 0.930047 0.991496 -18.427154 16.767351 7.549232 -65.895268 -0.000011 -4.752718 0.000022 0.000002 -0.000003 -0.000001 0.794100 0.754513 18.294421 -8.847545 14.205907 49.728927 -0.000002 21.644026 0.000016 0.000001 0.000002 -0.000002 -28.869519 4.322797 -5.848966 19.358872 6.345902 -0.911554 6.124883 1.657799 8.062925 -3.701323 -0.000001 -0.000001 0.000000 -0.000003 -0.000000 16.161771 -15.016972 -9.570684 31.514527 4.215041 -2.160746 -7.430635 -2.154392 15.725290 -35.749879 -0.000451 0.026317 0.000000 -0.000000 0.000000 
6.806522 90.930878 49.503235 -2.474514 7.623744 0.703228 5.474702 8.501401 -4.275374 0.154180 2.513360 -0.494006 0.151683 2.515933 -0.493287 -2.172535 -0.239483 0.662782 -2.177150 -0.242065 0.646405 -0.000000 -0.000001 -0.000000 0.939699 1.124192 -18.407146 15.995890 6.489676 -65.534798 0.000003 -5.035566 -0.000000 -0.000002 -0.000000 0.000000 0.815374 0.502862 18.355544 -7.421177 12.633053 51.467139 0.000010 20.710851 -0.000009 0.000002 0.000000 0.000000 -28.021578 4.652208 -6.404781 23.910916 7.022603 -1.832704 4.667325 1.290403 9.920738 -3.142176 0.000003 -0.000001 0.000000 -0.000001 0.000000 11.340267 -12.465485 -10.173868 39.977504 0.159309 -4.394192 8.229946 0.555060 18.142845 -50.679891 -1.576658 4.009263 0.000001 -0.000000 0.000000 
7.975729 91.353767 53.912903 -2.792452 9.384870 1.032836 5.811688 7.266224 -4.185538 0.183527 2.162537 -0.502660 0.179584 2.166054 -0.503084 -2.212644 -0.112561 0.713200 -2.217424 -0.113571 0.698052 -0.000000 0.000000 -0.000000 0.910252 0.608545 -18.685366 13.759381 4.572230 -64.953870 0.000008 -4.724783 0.000023 -0.000000 -0.000000 0.000000 0.834829 0.322268 18.528913 -6.010431 10.844749 52.999994 -0.000002 19.563014 0.000004 0.000001 -0.000000 -0.000000 -26.526571 4.488876 -7.412062 28.339987 7.232447 -2.121813 0.760300 0.031044 10.296199 -3.301035 0.000007 0.000003 0.000000 -0.000001 -0.000000 8.222752 -10.573772 -9.278675 43.358703 0.095794 -4.555570 19.847258 1.906579 13.155989 -60.117884 -8.526239 7.105618 0.000000 0.000000 -0.000000 
9.073853 92.263000 58.158978 -3.539564 11.453764 1.110593 6.251215 5.993673 -3.780424 0.254008 1.796544 -0.390546 0.252004 1.798341 -0.392331 -2.070648 0.030704 0.689578 -2.074826 0.030304 0.676920 -0.000000 0.000002 -0.000000 0.863360 -0.205372 -19.302849 10.500201 2.438011 -63.865561 -0.000003 -4.532550 0.000012 -0.000001 0.000000 0.000000 0.877700 -0.140538 18.703300 -4.282424 8.891801 54.286408 -0.000000 17.979520 -0.000001 0.000000 -0.000001 -0.000000 -22.930396 3.793177 -8.436348 29.366801 6.955680 -1.598624 -2.770666 -1.045191 10.060381 -3.486412 0.000000 0.000003 0.000000 -0.000002 -0.000000 3.281459 -8.554815 -8.382803 50.650788 -0.373977 -4.298555 15.744957 1.260742 11.249579 -51.533511 -9.225242 7.457256 -0.000000 -0.000000 0.000000 
10.085817 93.395210 62.299908 -4.169435 13.895858 0.547769 6.347007 4.425535 -2.707317 0.318668 1.321687 -0.199835 0.319099 1.320562 -0.202108 -1.878150 0.202939 0.637953 -1.881524 0.203604 0.627794 -0.000000 0.000000 -0.000000 0.820264 -0.731767 -19.359060 6.660845 -0.258314 -62.932591 0.000000 -5.238409 -0.000016 -0.000003 0.000000 -0.000000 0.925100 -0.683590 18.781685 -2.818027 6.418745 56.082369 0.000000 15.969541 0.000007 0.000001 0.000000 -0.000000 -18.392603 3.225370 -8.595342 28.031347 4.991846 -0.724117 -5.050099 -1.378743 9.879693 -3.704465 0.000007 -0.000002 0.000000 0.000002 0.000000 -2.217341 -7.051657 -6.735304 56.358005 -1.299960 -3.632975 9.121280 0.518520 9.577990 -41.667791 -5.165481 5.957461 0.000001 0.000000 0.000000 
